<?xml version="1.0" standalone="no"?>
<!DOCTYPE svg PUBLIC "-//W3C//DTD SVG 20010904//EN"
 "http://www.w3.org/TR/2001/REC-SVG-20010904/DTD/svg10.dtd">
<svg version="1.0" xmlns="http://www.w3.org/2000/svg"
 width="312.000000pt" height="312.000000pt" viewBox="0 0 312.000000 312.000000"
 preserveAspectRatio="xMidYMid meet">
<metadata>
Created by potrace 1.14, written by Peter Selinger 2001-2017
</metadata>
<g transform="translate(0.000000,312.000000) scale(0.100000,-0.100000)"
fill="#000000" stroke="none">
<path d="M1244 2515 c-10 -33 -11 -39 -2 -57 5 -10 4 -19 -2 -23 -8 -5 -8 -11
0 -20 8 -10 8 -19 0 -34 -7 -15 -8 -27 0 -40 7 -14 7 -22 0 -26 -8 -5 -7 -11
1 -21 8 -10 8 -18 1 -26 -16 -20 -16 -22 -4 -45 8 -15 9 -24 2 -28 -8 -5 -8
-11 0 -20 8 -10 8 -19 0 -34 -7 -15 -8 -27 0 -40 7 -14 7 -22 0 -26 -8 -5 -7
-11 1 -21 9 -11 8 -18 -2 -31 -8 -9 -14 -17 -13 -17 14 -17 22 -46 14 -51 -8
-5 -8 -11 0 -20 8 -10 8 -19 0 -34 -7 -15 -8 -27 0 -40 7 -14 7 -22 0 -26 -8
-5 -7 -11 0 -20 7 -8 8 -20 4 -27 -12 -17 -12 -30 -2 -50 5 -10 4 -19 -2 -23
-8 -5 -8 -11 0 -20 8 -10 8 -19 0 -34 -7 -14 -7 -27 -1 -39 7 -13 7 -22 0 -29
-7 -7 -7 -13 -1 -17 6 -3 8 -15 5 -26 -3 -11 -9 -17 -14 -14 -5 3 -9 0 -9 -5
0 -6 -7 -11 -15 -11 -8 0 -15 -4 -15 -10 0 -5 -11 -12 -25 -16 -14 -3 -25 -11
-25 -16 0 -6 -7 -7 -16 -4 -8 3 -12 2 -9 -4 3 -5 -6 -12 -20 -16 -14 -3 -25
-10 -25 -15 0 -5 -6 -9 -14 -9 -7 0 -25 -9 -38 -20 -14 -10 -28 -16 -32 -13
-3 3 -6 1 -6 -5 0 -7 -6 -12 -14 -12 -8 0 -17 -7 -20 -16 -3 -8 -10 -12 -16
-9 -5 3 -10 2 -10 -4 0 -6 -7 -8 -15 -5 -8 4 -15 2 -15 -4 0 -5 -18 -19 -39
-30 -60 -32 -86 -46 -91 -53 -3 -4 -15 -9 -27 -13 -13 -4 -23 -12 -23 -17 0
-6 -4 -7 -10 -4 -5 3 -10 1 -10 -5 0 -6 -4 -8 -10 -5 -5 3 -10 2 -10 -3 0 -6
-14 -15 -31 -21 -19 -7 -28 -15 -23 -22 4 -8 3 -9 -4 -5 -6 4 -23 -1 -38 -10
-45 -30 -88 -54 -116 -65 -16 -6 -28 -15 -28 -20 0 -5 -7 -9 -15 -9 -24 0 -38
-36 -20 -54 8 -8 15 -19 15 -25 0 -6 5 -11 12 -11 6 0 8 -3 5 -7 -4 -3 -1 -13
7 -22 8 -9 16 -23 18 -31 2 -8 11 -23 21 -34 10 -11 15 -26 13 -33 -3 -7 1
-10 10 -6 10 3 12 0 9 -10 -4 -8 0 -21 7 -28 7 -8 22 -31 33 -51 11 -21 23
-38 28 -38 5 0 7 -6 5 -12 -3 -7 4 -21 14 -32 10 -11 18 -26 18 -33 0 -7 4
-13 8 -13 5 0 14 -16 22 -35 8 -19 17 -35 22 -35 4 0 8 -7 8 -15 0 -8 9 -19
20 -25 11 -6 20 -7 20 -2 0 5 23 20 50 33 28 13 50 27 50 31 0 5 7 8 15 8 8 0
15 5 15 12 0 6 3 8 6 5 4 -4 19 2 34 13 16 11 33 20 38 20 6 0 12 3 14 8 2 4
24 18 51 31 26 13 47 28 47 33 0 4 8 8 19 8 10 0 24 6 30 14 7 8 23 17 36 20
14 4 25 11 25 16 0 6 6 10 14 10 8 0 21 6 28 12 7 7 27 20 43 28 17 8 36 21
43 28 7 6 18 12 23 12 5 0 27 11 48 24 21 14 42 22 47 18 4 -4 4 -2 0 5 -4 8
2 15 19 19 14 3 25 11 25 16 0 6 8 7 17 4 10 -4 14 -4 10 0 -4 4 4 13 18 21
83 45 76 43 107 27 15 -8 28 -19 28 -24 0 -5 6 -7 14 -4 8 3 17 0 21 -5 3 -6
11 -8 17 -5 6 4 8 2 4 -4 -3 -6 14 -20 41 -34 27 -13 54 -29 61 -36 7 -6 20
-12 28 -12 8 0 14 -5 14 -11 0 -5 4 -7 10 -4 5 3 10 3 10 -2 0 -4 21 -19 48
-33 26 -13 50 -28 53 -33 3 -5 15 -10 25 -11 10 -2 18 -9 16 -15 -1 -6 1 -10
5 -9 12 3 86 -34 107 -54 11 -10 28 -18 38 -18 10 0 18 -5 18 -11 0 -5 4 -8 9
-5 5 3 14 -1 21 -9 7 -8 17 -15 23 -15 5 0 16 -8 24 -18 8 -9 11 -11 7 -3 -4
8 8 3 27 -10 19 -14 48 -32 64 -39 17 -8 32 -17 35 -20 10 -10 50 -30 61 -30
11 0 33 19 38 32 2 4 5 17 8 28 3 11 9 20 13 20 5 0 13 12 19 28 6 15 24 50
41 77 17 28 36 62 43 78 6 15 15 27 19 27 4 0 8 7 8 16 0 8 5 12 10 9 6 -4 9
-3 8 2 -5 14 24 73 33 67 5 -3 6 2 3 10 -3 9 -2 16 4 16 5 0 13 11 16 25 4 14
11 25 17 25 6 0 7 5 4 10 -3 6 -1 10 5 10 6 0 9 4 6 9 -4 5 -1 11 5 13 7 2 9
13 5 26 -4 12 -12 20 -17 17 -5 -4 -9 -3 -9 2 0 4 -18 17 -40 27 -22 10 -37
23 -33 29 3 6 1 7 -5 3 -7 -4 -31 6 -54 21 -24 16 -56 35 -73 43 -16 8 -32 17
-35 20 -3 3 -18 14 -34 24 -19 12 -26 13 -21 5 3 -8 -3 -3 -15 11 -12 14 -24
24 -26 23 -9 -4 -44 10 -44 18 0 5 -7 9 -15 9 -8 0 -15 5 -15 11 0 5 -4 8 -8
5 -5 -3 -19 4 -30 15 -12 11 -22 18 -22 15 0 -2 -26 11 -57 30 -31 19 -61 34
-66 34 -4 0 -5 4 -2 10 3 6 -1 7 -9 4 -9 -3 -16 -1 -16 5 0 6 -5 11 -10 11 -6
0 -28 11 -49 24 -21 14 -42 22 -45 19 -3 -4 -6 -1 -6 5 0 7 -7 12 -15 12 -8 0
-15 5 -15 10 0 6 -7 10 -15 10 -8 0 -15 5 -15 12 0 6 -3 9 -6 5 -13 -12 -30
19 -28 51 1 19 -3 32 -9 32 -8 0 -7 4 2 9 10 6 10 10 1 16 -9 6 -9 9 0 15 9 6
9 12 0 30 -9 17 -9 21 0 15 14 -9 10 27 -5 37 -6 5 -6 8 2 8 11 0 10 30 -2 49
-3 5 -1 12 3 15 8 5 9 29 2 61 -1 6 -1 12 0 15 7 19 5 50 -4 50 -6 0 -5 4 3 9
10 6 10 10 1 16 -9 6 -9 9 0 15 9 6 9 12 0 30 -9 17 -9 21 0 15 14 -9 10 27
-5 37 -6 5 -6 8 2 8 11 0 11 7 3 45 -1 6 -1 12 0 15 7 19 5 50 -4 50 -6 0 -5
4 3 9 10 6 10 10 1 16 -9 6 -9 9 0 15 9 6 9 12 0 30 -9 17 -9 21 0 15 14 -9
10 27 -5 37 -6 5 -6 8 2 8 11 0 11 7 3 45 -1 6 -1 12 0 15 7 19 5 50 -4 50 -6
0 -5 4 3 9 10 6 10 10 1 16 -9 6 -9 9 0 15 9 6 9 12 0 30 -7 13 -8 20 -2 16 6
-4 10 2 9 14 -1 11 -8 21 -17 21 -61 5 -107 4 -117 -4 -6 -4 -14 -4 -16 0 -7
11 -48 9 -67 -2 -8 -5 -11 -4 -7 2 7 11 -53 10 -71 -1 -6 -3 -13 -3 -16 2 -6
10 -48 8 -66 -3 -8 -5 -11 -4 -7 2 7 12 -54 10 -73 -2 -7 -5 -11 -4 -8 1 4 5
-28 9 -72 9 -70 1 -80 -2 -86 -20z m221 -165 c-7 -12 23 -9 44 4 8 5 12 5 8 0
-3 -5 31 -9 78 -8 l84 0 -4 -28 c-2 -17 1 -28 8 -28 8 0 8 -3 2 -8 -14 -10
-17 -32 -4 -32 8 0 8 -4 0 -14 -9 -10 -9 -16 -1 -21 8 -5 8 -10 0 -20 -8 -9
-8 -15 0 -20 6 -3 7 -12 3 -18 -11 -18 -12 -36 -2 -43 5 -3 6 -11 2 -17 -11
-18 -12 -36 -2 -43 5 -3 6 -11 2 -17 -13 -20 -10 -487 3 -505 9 -12 13 -12 19
-2 6 9 4 11 -5 5 -9 -5 -11 -4 -6 4 4 6 13 8 19 4 20 -12 41 -12 56 0 10 8 13
8 8 1 -4 -7 3 -14 18 -17 14 -2 28 0 32 6 4 6 1 7 -7 2 -9 -5 -11 -4 -6 3 5 9
12 8 26 0 16 -11 17 -15 6 -28 -8 -8 -28 -42 -44 -74 -28 -55 -29 -61 -14 -73
9 -7 23 -13 30 -13 6 0 12 -4 12 -9 0 -5 11 -12 25 -15 14 -4 23 -11 20 -16
-3 -6 1 -7 9 -4 9 3 16 1 16 -5 0 -6 7 -11 16 -11 9 0 12 -5 8 -12 -5 -7 -3
-8 6 -3 7 4 15 4 19 -1 3 -5 15 -14 26 -20 64 -34 91 -50 103 -62 8 -7 18 -10
23 -7 5 4 9 2 9 -3 0 -5 8 -12 18 -15 17 -6 72 -37 82 -47 3 -3 19 -12 35 -20
17 -8 36 -21 43 -27 7 -7 24 -16 38 -19 13 -3 24 -9 24 -13 0 -4 16 -13 35
-21 19 -8 35 -17 35 -21 0 -4 9 -9 20 -12 27 -7 25 -35 -4 -77 -13 -19 -26
-45 -30 -57 -4 -13 -12 -23 -17 -23 -6 0 -7 -4 -4 -10 3 -5 1 -10 -4 -10 -6 0
-11 -6 -11 -14 0 -7 -6 -19 -14 -25 -11 -9 -17 -8 -29 3 -8 8 -17 12 -21 9 -3
-3 -14 1 -23 9 -10 8 -38 26 -63 39 -25 13 -51 30 -58 37 -8 7 -18 10 -23 7
-5 -4 -9 -1 -9 4 0 6 -7 11 -15 11 -8 0 -15 4 -15 8 0 5 -16 14 -35 22 -19 8
-35 16 -35 19 0 3 -18 15 -40 25 -22 11 -40 23 -40 28 0 5 -4 6 -10 3 -5 -3
-10 -2 -10 3 0 6 -13 15 -30 21 -16 5 -30 15 -30 20 0 6 -3 10 -7 9 -12 -2
-46 14 -61 29 -8 7 -18 11 -23 8 -5 -4 -9 -1 -9 4 0 6 -7 11 -15 11 -8 0 -15
5 -15 11 0 5 -4 7 -10 4 -5 -3 -10 -1 -10 5 0 7 -7 10 -14 7 -11 -4 -13 -1 -9
11 3 9 3 14 -1 10 -5 -4 -19 -3 -31 2 -20 8 -26 4 -43 -23 -10 -18 -19 -36
-20 -40 -1 -4 -8 -15 -17 -23 -8 -9 -15 -22 -15 -30 0 -34 -39 -5 -60 45 -7
17 -16 28 -21 26 -4 -3 -6 2 -5 12 2 10 -3 25 -12 33 -9 8 -17 15 -17 14 -1
-5 -87 -54 -95 -54 -5 0 -10 -3 -10 -7 0 -5 -10 -13 -23 -19 -50 -24 -143 -78
-158 -90 -9 -8 -18 -12 -21 -9 -3 3 -11 -1 -18 -10 -7 -8 -19 -15 -26 -15 -8
0 -14 -5 -14 -11 0 -6 -7 -8 -16 -5 -8 3 -13 2 -10 -3 3 -4 -16 -19 -42 -32
-26 -13 -53 -30 -60 -37 -8 -6 -18 -10 -23 -7 -5 4 -9 1 -9 -5 0 -6 -13 -16
-30 -21 -16 -6 -30 -15 -30 -19 0 -4 -11 -11 -25 -14 -14 -4 -23 -11 -20 -16
3 -6 -1 -7 -9 -4 -9 3 -16 2 -16 -4 0 -5 -7 -13 -16 -16 -10 -4 -13 -2 -8 7 5
8 2 7 -9 -2 -15 -12 -17 -11 -17 3 0 9 -4 16 -10 16 -5 0 -10 6 -10 13 0 7 -8
22 -17 33 -10 11 -19 26 -21 34 -2 8 -7 17 -10 20 -6 4 -20 29 -39 72 -5 9 68
58 78 53 4 -3 9 2 13 10 3 8 12 15 21 15 8 0 15 5 15 12 0 6 3 9 6 5 4 -3 13
1 21 9 8 8 19 12 24 9 5 -4 9 -1 9 4 0 6 7 11 15 11 8 0 15 5 15 11 0 5 5 7
10 4 6 -3 10 -3 10 2 0 4 13 14 30 21 16 7 45 24 64 37 19 13 37 21 40 17 3
-3 6 0 6 7 0 7 5 9 10 6 6 -3 10 -2 10 3 0 5 18 17 40 27 22 10 45 24 51 31 6
8 15 11 20 8 5 -3 9 0 9 6 0 6 5 8 10 5 6 -3 10 -1 10 4 0 6 7 11 15 11 8 0
15 5 15 11 0 5 5 7 10 4 6 -3 10 -2 10 3 0 5 23 20 50 33 38 18 50 29 50 46 0
13 -4 23 -8 23 -5 0 -14 16 -22 35 -8 19 -18 35 -23 35 -5 0 -7 7 -3 15 3 8 0
14 -6 12 -5 -1 -12 6 -13 16 -3 15 -1 16 11 6 12 -9 13 -9 9 3 -4 9 0 15 9 15
8 0 13 -4 11 -8 -3 -3 7 -9 20 -12 14 -2 28 0 32 6 4 6 1 7 -8 2 -8 -5 -10 -4
-6 0 10 11 39 16 32 5 -3 -4 4 -10 15 -13 11 -3 23 0 27 5 4 7 1 8 -8 3 -8 -5
-11 -4 -6 1 5 5 15 9 23 9 13 0 15 54 14 397 0 370 1 397 17 407 23 13 26 13
18 1z"/>
</g>
</svg>
